<?xml version="1.0" standalone="no"?>
<!DOCTYPE svg PUBLIC "-//W3C//DTD SVG 20010904//EN"
 "http://www.w3.org/TR/2001/REC-SVG-20010904/DTD/svg10.dtd">
<svg version="1.0" xmlns="http://www.w3.org/2000/svg"
 width="225.000000pt" height="225.000000pt" viewBox="0 0 225.000000 225.000000"
 preserveAspectRatio="xMidYMid meet">
<metadata>
Created by potrace 1.14, written by Peter Selinger 2001-2017
</metadata>
<g transform="translate(0.000000,225.000000) scale(0.100000,-0.100000)"
fill="#000000" stroke="none">
<path d="M968 2240 c-184 -29 -351 -99 -513 -215 -77 -55 -210 -192 -265 -274
-62 -93 -127 -237 -157 -348 -23 -87 -26 -117 -27 -273 0 -149 3 -188 22 -263
38 -152 110 -305 195 -416 289 -375 788 -540 1222 -404 102 32 175 63 175 74
0 5 -181 276 -403 601 l-402 592 -3 -387 -2 -387 -31 -16 c-34 -17 -73 -12
-101 13 -17 15 -18 53 -18 529 0 453 2 514 16 528 18 19 92 21 115 3 12 -9
882 -1315 934 -1402 9 -15 20 -11 92 44 286 216 447 568 430 940 -20 421 -250
770 -631 956 -156 77 -273 105 -451 110 -77 2 -166 0 -197 -5z m608 -621 c12
-10 14 -86 14 -463 l0 -451 -75 115 -75 115 2 340 3 339 25 14 c28 14 84 10
106 -9z"/>
</g>
</svg>
